# xmcd
#
# Track frame offsets:
#	300
#	15574
#	35630
#	50137
#	66276
#	83303
#	93367
#	110894
#	128636
#	147851
#	155887
#	169942
#	185958
#	201457
#	217977
#
# Disc length: 3047 seconds
#
# Revision: 1
# Processed by: cddbd v1.5.2PL0 Copyright (c) Steve Scherf et al.
# Submitted via: audiograbber 1.83.01
#
DISCID=e30be30f
DTITLE=Michael Weston King - Love's A Cover
DYEAR=2007
DGENRE=Folk-Rock
TTITLE0=A song for
TTITLE1=Someday never comes
TTITLE2=Big Louise
TTITLE3=She's leaving
TTITLE4=Young hearts run free
TTITLE5=For no one
TTITLE6=You are everything
TTITLE7=Alone again
TTITLE8=Simple twist of fade
TTITLE9=Love in mind
TTITLE10=Blue red and grey
TTITLE11=No more songs
TTITLE12=Can't cry hard enough
TTITLE13=Straight to you
TTITLE14=Doomed
EXTD=
EXTT0=
EXTT1=
EXTT2=
EXTT3=
EXTT4=
EXTT5=
EXTT6=
EXTT7=
EXTT8=
EXTT9=
EXTT10=
EXTT11=
EXTT12=
EXTT13=
EXTT14=
PLAYORDER=
